<mxfile host="app.diagrams.net" modified="2023-08-16T12:04:09.648Z" agent="Mozilla/5.0 (Windows NT 10.0; Win64; x64) AppleWebKit/537.36 (KHTML, like Gecko) Chrome/115.0.0.0 Safari/537.36" etag="v-kZWr04ltns1V_un0eB" version="21.6.6" type="github">
  <diagram name="Page-1" id="6q2sXKUMOU3YMIk7FLAt">
    <mxGraphModel dx="880" dy="446" grid="1" gridSize="10" guides="1" tooltips="1" connect="1" arrows="1" fold="1" page="1" pageScale="1" pageWidth="850" pageHeight="1100" math="0" shadow="0">
      <root>
        <mxCell id="0" />
        <mxCell id="1" parent="0" />
        <mxCell id="qWA1cj3lEQaVXUbHit31-12" value="Cloud" style="points=[[0,0],[0.25,0],[0.5,0],[0.75,0],[1,0],[1,0.25],[1,0.5],[1,0.75],[1,1],[0.75,1],[0.5,1],[0.25,1],[0,1],[0,0.75],[0,0.5],[0,0.25]];outlineConnect=0;gradientColor=none;html=1;whiteSpace=wrap;fontSize=12;fontStyle=0;container=1;pointerEvents=0;collapsible=0;recursiveResize=0;shape=mxgraph.aws4.group;grIcon=mxgraph.aws4.group_aws_cloud;strokeColor=#232F3E;fillColor=none;verticalAlign=top;align=left;spacingLeft=30;fontColor=#232F3E;dashed=0;" parent="1" vertex="1">
          <mxGeometry x="50" y="190" width="980" height="430" as="geometry" />
        </mxCell>
        <mxCell id="qWA1cj3lEQaVXUbHit31-32" style="edgeStyle=none;rounded=0;orthogonalLoop=1;jettySize=auto;html=1;entryX=0.75;entryY=0;entryDx=0;entryDy=0;" parent="qWA1cj3lEQaVXUbHit31-12" source="qWA1cj3lEQaVXUbHit31-9" target="qWA1cj3lEQaVXUbHit31-28" edge="1">
          <mxGeometry relative="1" as="geometry" />
        </mxCell>
        <mxCell id="qWA1cj3lEQaVXUbHit31-9" value="Amazon EKS" style="sketch=0;outlineConnect=0;fontColor=#232F3E;gradientColor=none;strokeColor=#ffffff;fillColor=#232F3E;dashed=0;verticalLabelPosition=middle;verticalAlign=bottom;align=center;html=1;whiteSpace=wrap;fontSize=10;fontStyle=1;spacing=3;shape=mxgraph.aws4.productIcon;prIcon=mxgraph.aws4.eks;" parent="qWA1cj3lEQaVXUbHit31-12" vertex="1">
          <mxGeometry x="440" y="40" width="70" height="90" as="geometry" />
        </mxCell>
        <mxCell id="qWA1cj3lEQaVXUbHit31-18" value="" style="rounded=0;whiteSpace=wrap;html=1;fillColor=none;" parent="qWA1cj3lEQaVXUbHit31-12" vertex="1">
          <mxGeometry x="420" y="194" width="510" height="220" as="geometry" />
        </mxCell>
        <mxCell id="qWA1cj3lEQaVXUbHit31-19" style="edgeStyle=elbowEdgeStyle;rounded=0;orthogonalLoop=1;jettySize=auto;html=1;" parent="qWA1cj3lEQaVXUbHit31-12" source="qWA1cj3lEQaVXUbHit31-22" target="qWA1cj3lEQaVXUbHit31-18" edge="1">
          <mxGeometry relative="1" as="geometry" />
        </mxCell>
        <mxCell id="qWA1cj3lEQaVXUbHit31-22" value="" style="sketch=0;pointerEvents=1;shadow=0;dashed=0;html=1;strokeColor=none;fillColor=#505050;labelPosition=center;verticalLabelPosition=bottom;verticalAlign=top;outlineConnect=0;align=center;shape=mxgraph.office.servers.cluster_server;" parent="qWA1cj3lEQaVXUbHit31-12" vertex="1">
          <mxGeometry x="475" y="274.5" width="49" height="59" as="geometry" />
        </mxCell>
        <mxCell id="qWA1cj3lEQaVXUbHit31-23" value="Amazon EKS" style="sketch=0;outlineConnect=0;fontColor=#232F3E;gradientColor=none;strokeColor=#ffffff;fillColor=#232F3E;dashed=0;verticalLabelPosition=middle;verticalAlign=bottom;align=center;html=1;whiteSpace=wrap;fontSize=10;fontStyle=1;spacing=3;shape=mxgraph.aws4.productIcon;prIcon=mxgraph.aws4.eks;" parent="qWA1cj3lEQaVXUbHit31-12" vertex="1">
          <mxGeometry x="755" y="264.5" width="80" height="100" as="geometry" />
        </mxCell>
        <mxCell id="qWA1cj3lEQaVXUbHit31-24" style="edgeStyle=elbowEdgeStyle;rounded=0;orthogonalLoop=1;jettySize=auto;html=1;" parent="qWA1cj3lEQaVXUbHit31-12" source="qWA1cj3lEQaVXUbHit31-25" target="qWA1cj3lEQaVXUbHit31-23" edge="1">
          <mxGeometry relative="1" as="geometry" />
        </mxCell>
        <mxCell id="qWA1cj3lEQaVXUbHit31-25" value="Services" style="html=1;whiteSpace=wrap;strokeColor=none;fillColor=#0079D6;labelPosition=center;verticalLabelPosition=middle;verticalAlign=top;align=center;fontSize=12;outlineConnect=0;spacingTop=-6;fontColor=#FFFFFF;sketch=0;shape=mxgraph.sitemap.services;" parent="qWA1cj3lEQaVXUbHit31-12" vertex="1">
          <mxGeometry x="585" y="204.5" width="100" height="55" as="geometry" />
        </mxCell>
        <mxCell id="qWA1cj3lEQaVXUbHit31-21" style="edgeStyle=elbowEdgeStyle;rounded=0;orthogonalLoop=1;jettySize=auto;html=1;" parent="qWA1cj3lEQaVXUbHit31-12" source="qWA1cj3lEQaVXUbHit31-22" target="qWA1cj3lEQaVXUbHit31-25" edge="1">
          <mxGeometry relative="1" as="geometry" />
        </mxCell>
        <mxCell id="qWA1cj3lEQaVXUbHit31-26" style="edgeStyle=elbowEdgeStyle;rounded=0;orthogonalLoop=1;jettySize=auto;html=1;" parent="qWA1cj3lEQaVXUbHit31-12" source="qWA1cj3lEQaVXUbHit31-27" target="qWA1cj3lEQaVXUbHit31-23" edge="1">
          <mxGeometry relative="1" as="geometry" />
        </mxCell>
        <mxCell id="qWA1cj3lEQaVXUbHit31-27" value="" style="outlineConnect=0;dashed=0;verticalLabelPosition=bottom;verticalAlign=top;align=center;html=1;shape=mxgraph.aws3.deployments;fillColor=#759C3E;gradientColor=none;rotation=-90;" parent="qWA1cj3lEQaVXUbHit31-12" vertex="1">
          <mxGeometry x="604.25" y="315.25" width="70" height="60" as="geometry" />
        </mxCell>
        <mxCell id="qWA1cj3lEQaVXUbHit31-20" value="" style="edgeStyle=elbowEdgeStyle;rounded=0;orthogonalLoop=1;jettySize=auto;html=1;" parent="qWA1cj3lEQaVXUbHit31-12" source="qWA1cj3lEQaVXUbHit31-22" target="qWA1cj3lEQaVXUbHit31-27" edge="1">
          <mxGeometry relative="1" as="geometry" />
        </mxCell>
        <mxCell id="qWA1cj3lEQaVXUbHit31-28" value="EKS Deployment" style="text;strokeColor=none;align=center;fillColor=none;html=1;verticalAlign=middle;whiteSpace=wrap;rounded=0;" parent="qWA1cj3lEQaVXUbHit31-12" vertex="1">
          <mxGeometry x="420" y="194" width="70" height="30" as="geometry" />
        </mxCell>
        <mxCell id="qWA1cj3lEQaVXUbHit31-29" value="EKS Cluster" style="text;strokeColor=none;align=center;fillColor=none;html=1;verticalAlign=middle;whiteSpace=wrap;rounded=0;" parent="qWA1cj3lEQaVXUbHit31-12" vertex="1">
          <mxGeometry x="465" y="344" width="70" height="31.25" as="geometry" />
        </mxCell>
        <mxCell id="qWA1cj3lEQaVXUbHit31-30" value="Deployment" style="text;strokeColor=none;align=center;fillColor=none;html=1;verticalAlign=middle;whiteSpace=wrap;rounded=0;" parent="qWA1cj3lEQaVXUbHit31-12" vertex="1">
          <mxGeometry x="605" y="364.5" width="80" height="40" as="geometry" />
        </mxCell>
        <mxCell id="qWA1cj3lEQaVXUbHit31-33" value="Github" style="text;strokeColor=none;align=center;fillColor=none;html=1;verticalAlign=middle;whiteSpace=wrap;rounded=0;" parent="qWA1cj3lEQaVXUbHit31-12" vertex="1">
          <mxGeometry x="60" y="110" width="60" height="30" as="geometry" />
        </mxCell>
        <mxCell id="qWA1cj3lEQaVXUbHit31-35" style="edgeStyle=none;rounded=0;orthogonalLoop=1;jettySize=auto;html=1;" parent="qWA1cj3lEQaVXUbHit31-12" source="qWA1cj3lEQaVXUbHit31-3" target="qWA1cj3lEQaVXUbHit31-33" edge="1">
          <mxGeometry relative="1" as="geometry" />
        </mxCell>
        <mxCell id="qWA1cj3lEQaVXUbHit31-3" value="" style="sketch=0;pointerEvents=1;shadow=0;dashed=0;html=1;strokeColor=none;fillColor=#505050;labelPosition=center;verticalLabelPosition=bottom;verticalAlign=top;outlineConnect=0;align=center;shape=mxgraph.office.devices.laptop;" parent="qWA1cj3lEQaVXUbHit31-12" vertex="1">
          <mxGeometry x="60" y="194" width="58" height="34" as="geometry" />
        </mxCell>
        <mxCell id="qWA1cj3lEQaVXUbHit31-34" value="Dev" style="text;strokeColor=none;align=center;fillColor=none;html=1;verticalAlign=middle;whiteSpace=wrap;rounded=0;" parent="qWA1cj3lEQaVXUbHit31-12" vertex="1">
          <mxGeometry x="59" y="234.5" width="60" height="30" as="geometry" />
        </mxCell>
        <mxCell id="qWA1cj3lEQaVXUbHit31-36" value="" style="shape=image;html=1;verticalAlign=top;verticalLabelPosition=bottom;labelBackgroundColor=#ffffff;imageAspect=0;aspect=fixed;image=https://cdn1.iconfinder.com/data/icons/unicons-line-vol-3/24/docker-128.png" parent="qWA1cj3lEQaVXUbHit31-12" vertex="1">
          <mxGeometry x="200" y="40" width="70" height="70" as="geometry" />
        </mxCell>
        <mxCell id="qWA1cj3lEQaVXUbHit31-37" value="containerize" style="text;strokeColor=none;align=center;fillColor=none;html=1;verticalAlign=middle;whiteSpace=wrap;rounded=0;" parent="qWA1cj3lEQaVXUbHit31-12" vertex="1">
          <mxGeometry x="200" y="100" width="60" height="30" as="geometry" />
        </mxCell>
        <mxCell id="jNxsBM56TcADlaNMsE26-1" style="edgeStyle=none;rounded=0;orthogonalLoop=1;jettySize=auto;html=1;entryX=0;entryY=0.5;entryDx=0;entryDy=0;" edge="1" parent="1" source="qWA1cj3lEQaVXUbHit31-5" target="qWA1cj3lEQaVXUbHit31-36">
          <mxGeometry relative="1" as="geometry" />
        </mxCell>
        <mxCell id="qWA1cj3lEQaVXUbHit31-5" value="" style="dashed=0;outlineConnect=0;html=1;align=center;labelPosition=center;verticalLabelPosition=bottom;verticalAlign=top;shape=mxgraph.weblogos.github" parent="1" vertex="1">
          <mxGeometry x="110" y="240" width="58" height="55" as="geometry" />
        </mxCell>
        <mxCell id="qWA1cj3lEQaVXUbHit31-14" style="edgeStyle=orthogonalEdgeStyle;rounded=0;orthogonalLoop=1;jettySize=auto;html=1;" parent="1" target="qWA1cj3lEQaVXUbHit31-8" edge="1">
          <mxGeometry relative="1" as="geometry">
            <mxPoint x="310" y="267.5" as="sourcePoint" />
          </mxGeometry>
        </mxCell>
        <mxCell id="qWA1cj3lEQaVXUbHit31-17" style="edgeStyle=orthogonalEdgeStyle;rounded=0;orthogonalLoop=1;jettySize=auto;html=1;" parent="1" source="qWA1cj3lEQaVXUbHit31-8" target="qWA1cj3lEQaVXUbHit31-9" edge="1">
          <mxGeometry relative="1" as="geometry" />
        </mxCell>
        <mxCell id="qWA1cj3lEQaVXUbHit31-8" value="Amazon ECS" style="sketch=0;outlineConnect=0;fontColor=#232F3E;gradientColor=none;strokeColor=#ffffff;fillColor=#232F3E;dashed=0;verticalLabelPosition=middle;verticalAlign=bottom;align=center;html=1;whiteSpace=wrap;fontSize=10;fontStyle=1;spacing=3;shape=mxgraph.aws4.productIcon;prIcon=mxgraph.aws4.ecs;" parent="1" vertex="1">
          <mxGeometry x="360" y="230" width="70" height="90" as="geometry" />
        </mxCell>
      </root>
    </mxGraphModel>
  </diagram>
</mxfile>
